<?xml version="1.0" encoding="utf-8"?>
<!-- Generator: Adobe Illustrator 23.0.4, SVG Export Plug-In . SVG Version: 6.00 Build 0)  -->
<svg version="1.1" xmlns="http://www.w3.org/2000/svg" xmlns:xlink="http://www.w3.org/1999/xlink" x="0px" y="0px"
	 viewBox="0 0 1500 700" style="enable-background:new 0 0 1500 700;" xml:space="preserve">
<style type="text/css">
	.st0{fill:#314557;}
	.st1{fill:url(#SVGID_1_);}
	.st2{display:none;}
	.st3{display:inline;fill:#314557;}
	.st4{font-family:'Montserrat-Regular';}
	.st5{font-size:62px;}
	.st6{fill:url(#SVGID_2_);}
	.st7{fill:url(#SVGID_3_);}
	.st8{fill:url(#SVGID_4_);}
	.st9{fill:url(#SVGID_5_);}
	.st10{fill:#DDAA44;}
	.st11{fill:url(#SVGID_6_);}
	.st12{fill:url(#SVGID_7_);}
	.st13{fill:url(#SVGID_8_);}
	.st14{fill:url(#SVGID_9_);}
	.st15{fill:url(#SVGID_10_);}
	.st16{fill:url(#SVGID_11_);}
	.st17{fill:url(#SVGID_12_);}
	.st18{fill:url(#SVGID_13_);}
	.st19{fill:url(#SVGID_14_);}
	.st20{fill:url(#SVGID_15_);}
	.st21{fill:url(#SVGID_16_);}
</style>
<g id="Logo_x5F_CoinAfrique_x5F_Horizontal">
	<g>
		<g id="Picto">
			<path class="st0" d="M306.3,453.9c-2.3-3.9-4.4-8-6.5-12c-19.8,1.9-34.2,8.3-34.2,15.8c0,9,21,16.4,47,16.4
				c25.9,0,47-7.3,47-16.4c0-7.5-14.4-13.8-34.1-15.7c-3.5,7-4.7,9.3-6.7,12.4C314,460.7,309.9,459.9,306.3,453.9z"/>
			<linearGradient id="SVGID_1_" gradientUnits="userSpaceOnUse" x1="306.9212" y1="458.7804" x2="306.9212" y2="225.8724">
				<stop  offset="0" style="stop-color:#FDDA48"/>
				<stop  offset="0.1023" style="stop-color:#F5CF46"/>
				<stop  offset="0.4076" style="stop-color:#E7BA42"/>
				<stop  offset="0.709" style="stop-color:#DFAE3F"/>
				<stop  offset="1" style="stop-color:#DDAA3E"/>
			</linearGradient>
			<path class="st1" d="M398.3,293.7c-4.2,1.5-8.5,2.2-12.8,2.5c-5.8,0.4-9.8-2.4-12.8-7c-3.2-5-5.3-10.5-7.4-15.9
				c-6-15.1-15.9-25.9-32.1-30.4c-9.7-2.7-19.5-2.4-29.3-2.4c-7.3,0-12.7-2.9-15.9-9.7c-2.5-5.2-3.9-5.8-9.4-4.3
				c-1.2,0.3-2.3,0.8-3.5,1c-15.6,3.4-30.1,9.2-43.3,18.4c-12.5,8.7-21.9,19.9-26.1,34.4c-6.8,23.9,1,44.3,17.5,62
				c8.7,9.2,19.5,15,30.9,19.8c3.7,1.6,7.2,3.7,9,7.2c6.1,11.6,12,23.2,17.8,35c6.1,12.4,13.2,24.3,18.5,37.1
				c0.1,0.2,0.2,0.3,0.3,0.5c2.1,4,4.2,8.1,6.5,12c3.6,6,7.7,6.8,12.4,0.5c2-3.1,3.2-5.4,6.7-12.4c0.1-0.2,0.2-0.4,0.3-0.6
				c10.3-19.8,20.6-39.7,31-59.5c2.6-4.9,13.1-24,17.8-27c8.9-5.5,16.9-12,23.2-20.5c6.8-9.2,11.7-19.4,12.7-30.9
				C411.5,292.2,407.4,290.5,398.3,293.7z M308.7,334.7c-13.1,0-23.7-10.6-23.7-23.7c0-13.1,10.6-23.7,23.7-23.7
				c13.1,0,23.7,10.6,23.7,23.7C332.4,324.1,321.8,334.7,308.7,334.7z"/>
		</g>
		<g id="Baseline" class="st2">
			<path class="st3" d="M485.8,437.6c0,12.1-7.3,19.4-19.4,19.4c-12.2,0-19.6-7.3-19.6-19.4v-27.3h5.3v27.3c0,9,5.4,14.3,14.3,14.3
				c8.8,0,14.1-5.2,14.1-14.3v-27.3h5.3V437.6z"/>
			<path class="st3" d="M530,435.2v21.6h-5.2v-20.2c0-6.2-3.7-9.8-9.9-9.8c-6.9,0.1-11.1,4.6-11.7,11.2v18.8H498v-35h5.2v7.7
				c2.5-5.3,7.2-7.8,13.5-7.9C525.1,421.6,530,426.8,530,435.2z"/>
			<path class="st3" d="M587,426.8l-2.9,3.6c-2.7-2.5-6.2-4-10.4-4c-7.2,0-12.4,5.2-12.4,12.9s5.2,12.9,12.4,12.9
				c4.6,0,8.4-1.6,10.8-4.5l3,3.2c-3.1,3.8-8,6-14,6c-10.1,0-17.3-7.2-17.3-17.6c0-10.4,7.2-17.6,17.3-17.6
				C579.2,421.6,583.8,423.5,587,426.8z"/>
			<path class="st3" d="M597.3,456.8v-49.2h5.2v49.2H597.3z"/>
			<path class="st3" d="M621.3,411.8c0,2.1-1.5,3.6-3.4,3.6s-3.4-1.5-3.4-3.6c0-2.1,1.5-3.6,3.4-3.6S621.3,409.7,621.3,411.8z
				 M615.4,456.8v-35h5.1v35H615.4z"/>
			<path class="st3" d="M660.4,426.8l-2.9,3.6c-2.7-2.5-6.2-4-10.4-4c-7.2,0-12.4,5.2-12.4,12.9s5.2,12.9,12.4,12.9
				c4.6,0,8.4-1.6,10.8-4.5l3,3.2c-3.1,3.8-8,6-14,6c-10.1,0-17.3-7.2-17.3-17.6c0-10.4,7.2-17.6,17.3-17.6
				C652.5,421.6,657.2,423.5,660.4,426.8z"/>
			<path class="st3" d="M673.8,453.9c0,1.1-0.4,1.9-1,2.9l-3.1,4.8h-2.9l2.2-4.8c-1-0.6-1.5-1.7-1.5-2.9c0-1.9,1.3-3.3,3.1-3.3
				C672.4,450.5,673.8,451.8,673.8,453.9z"/>
			<path class="st3" d="M731.9,456.8h-5.2v-7.9c-2.3,5.4-7,8-13.3,8.1c-8.2,0-13.1-5.2-13.1-13.6v-21.6h5.2V442
				c0,6.2,3.6,9.8,9.7,9.8c7.2-0.1,11.5-5.4,11.5-12.8v-17.2h5.2V456.8z"/>
			<path class="st3" d="M776.4,435.2v21.6h-5.2v-20.2c0-6.2-3.7-9.8-9.9-9.8c-6.9,0.1-11.1,4.6-11.7,11.2v18.8h-5.2v-35h5.2v7.7
				c2.5-5.3,7.2-7.8,13.5-7.9C771.5,421.6,776.4,426.8,776.4,435.2z"/>
			<path class="st3" d="M818.1,441.3h-28.5c0.9,6.8,5.9,11.1,12.7,11.1c4.3,0,8.1-1.5,10.8-4.4l2.9,3.1c-3.3,3.7-8.2,5.8-14.1,5.8
				c-10.3,0-17.4-7.2-17.4-17.6c0-10.4,7.2-17.6,17.3-17.6C813.1,421.6,818.6,429.4,818.1,441.3z M813.5,437.1
				c-0.3-6.7-4.8-10.9-11.7-10.9c-6.6,0-11.4,4.3-12.2,10.9H813.5z"/>
			<path class="st3" d="M880.9,439.4c0,10.3-6.8,17.6-16.6,17.6c-6.2,0-11-2.9-13.6-7.7v7.5h-5.2v-49.2h5.2v21.8
				c2.6-4.9,7.4-7.8,13.5-7.8C874,421.6,880.9,428.9,880.9,439.4z M875.7,439.2c0-7.5-5.2-13-12.5-13c-7.4,0-12.5,5.4-12.5,13
				c0,7.6,5.2,13,12.5,13C870.5,452.2,875.7,446.8,875.7,439.2z"/>
			<path class="st3" d="M921.9,439.2c0,10.5-7.4,17.7-17.7,17.7s-17.7-7.2-17.7-17.7c0-10.4,7.4-17.6,17.7-17.6
				S921.9,428.8,921.9,439.2z M891.7,439.3c0,7.7,5.2,13,12.5,13s12.5-5.3,12.5-13c0-7.6-5.2-12.9-12.5-12.9
				S891.7,431.7,891.7,439.3z"/>
			<path class="st3" d="M963,435.2v21.6h-5.2v-20.2c0-6.2-3.7-9.8-9.9-9.8c-6.9,0.1-11.1,4.6-11.7,11.2v18.8H931v-35h5.2v7.7
				c2.5-5.3,7.2-7.8,13.5-7.9C958.1,421.6,963,426.8,963,435.2z"/>
			<path class="st3" d="M1006.5,435.2v21.6h-5.2v-20.2c0-6.2-3.7-9.8-9.9-9.8c-6.9,0.1-11.1,4.6-11.7,11.2v18.8h-5.2v-35h5.2v7.7
				c2.5-5.3,7.2-7.8,13.5-7.9C1001.6,421.6,1006.5,426.8,1006.5,435.2z"/>
			<path class="st3" d="M1048.1,441.3h-28.5c0.9,6.8,5.9,11.1,12.7,11.1c4.3,0,8.1-1.5,10.8-4.4l2.9,3.1c-3.3,3.7-8.2,5.8-14.1,5.8
				c-10.3,0-17.4-7.2-17.4-17.6c0-10.4,7.2-17.6,17.3-17.6C1043.1,421.6,1048.7,429.4,1048.1,441.3z M1043.5,437.1
				c-0.3-6.7-4.8-10.9-11.7-10.9c-6.6,0-11.4,4.3-12.2,10.9H1043.5z"/>
			<path class="st3" d="M1096.9,451.4c-2.8,3.8-7.2,5.6-12.8,5.6c-7.2,0-11.9-4.6-11.9-10.7c0-6.1,4.8-10,13.1-10h11.5v-2.1
				c0-5.1-3.2-8.2-9.4-8.2c-3.8,0-7.4,1.5-11.1,4l-2.2-3.8c4.5-3,8.3-4.7,14.3-4.7c8.6,0,13.4,4.6,13.5,12.1l0.1,23.1h-5V451.4z
				 M1096.8,444.7v-4.2H1086c-5.8,0-8.9,1.8-8.9,5.6c0,3.8,3.1,6.4,8,6.4C1091,452.5,1095.5,449.5,1096.8,444.7z"/>
			<path class="st3" d="M1119.6,418.3v4.5h10v4.2h-10v29.7h-5.1v-29.7h-4.5v-4.2h4.5V419c0-7.6,5.4-11.7,11.2-11.7
				c2.7,0.1,5.4,0.9,7.5,2.5l-2.1,4.2c-1.6-1.1-3.5-1.8-5.3-1.8C1122.4,412.1,1119.6,414.3,1119.6,418.3z"/>
			<path class="st3" d="M1141.7,418.3v4.5h10v4.2h-10v29.7h-5.1v-29.7h-4.5v-4.2h4.5V419c0-7.6,5.4-11.7,11.2-11.7
				c2.7,0.1,5.4,0.9,7.5,2.5l-2.1,4.2c-1.6-1.1-3.5-1.8-5.3-1.8C1144.5,412.1,1141.7,414.3,1141.7,418.3z"/>
			<path class="st3" d="M1176.4,451.4c-2.8,3.8-7.2,5.6-12.8,5.6c-7.2,0-11.9-4.6-11.9-10.7c0-6.1,4.8-10,13.1-10h11.5v-2.1
				c0-5.1-3.2-8.2-9.4-8.2c-3.8,0-7.4,1.5-11.1,4l-2.2-3.8c4.5-3,8.3-4.7,14.3-4.7c8.6,0,13.4,4.6,13.5,12.1l0.1,23.1h-5V451.4z
				 M1176.3,444.7v-4.2h-10.9c-5.8,0-8.9,1.8-8.9,5.6c0,3.8,3.1,6.4,8,6.4C1170.5,452.5,1175,449.5,1176.3,444.7z"/>
			<path class="st3" d="M1198.9,411.8c0,2.1-1.5,3.6-3.4,3.6c-1.9,0-3.4-1.5-3.4-3.6c0-2.1,1.5-3.6,3.4-3.6
				C1197.4,408.2,1198.9,409.7,1198.9,411.8z M1192.9,456.8v-35h5.1v35H1192.9z"/>
			<path class="st3" d="M1215.8,429.6c2.3-5.1,6.6-7.9,12.5-8v5.2c-7.4-0.1-11.9,4.4-12.5,11.3v18.6h-5.2v-35h5.2V429.6z"/>
			<path class="st3" d="M1265.5,441.3h-28.5c0.9,6.8,5.9,11.1,12.7,11.1c4.3,0,8.1-1.5,10.8-4.4l2.9,3.1c-3.3,3.7-8.2,5.8-14.1,5.8
				c-10.3,0-17.4-7.2-17.4-17.6c0-10.4,7.2-17.6,17.3-17.6C1260.4,421.6,1266,429.4,1265.5,441.3z M1260.8,437.1
				c-0.3-6.7-4.8-10.9-11.7-10.9c-6.6,0-11.4,4.3-12.2,10.9H1260.8z"/>
			<path class="st3" d="M1296.8,453.8c0,2-1.4,3.4-3.2,3.4c-1.8,0-3.2-1.5-3.2-3.4c0-2,1.4-3.4,3.2-3.4
				C1295.4,450.4,1296.8,451.8,1296.8,453.8z M1295.2,442.8h-3.4l-0.7-20.4v-11.2h5v11.2L1295.2,442.8z"/>
		</g>
		<text transform="matrix(1 0 0 1 445.7602 459.1832)" class="st0 st4 st5">Achète facile, vends rapide !</text>
		<g id="Name">
			<path class="st0" d="M544.1,340.2l-15.4-16.3c-7.3,7.4-17.3,12.1-26.1,12.1c-16.4,0-28.9-13.2-28.9-30.5
				c0-17,12.4-30.1,28.9-30.1c9.2,0,19.3,5.2,26.1,13.5l15.3-18.1c-10.4-10.7-26.4-17.5-41.8-17.5c-31.6,0-55.4,22.5-55.4,52.4
				c0,30.4,23.3,53.3,54.5,53.3C516.5,359.2,533,351.6,544.1,340.2z"/>
			<path class="st0" d="M629.4,318c0-24.6-17.5-40.7-43.6-40.7c-26.2,0-43.7,16.1-43.7,40.7c0,24.6,17.5,40.9,43.7,40.9
				C611.9,358.9,629.4,342.6,629.4,318z M585.9,339c-10.7,0-17.9-8.3-17.9-20.7c0-12.3,7.3-20.7,17.9-20.7
				c10.5,0,17.8,8.4,17.8,20.7C603.6,330.8,596.4,339,585.9,339z"/>
			<rect x="637.9" y="278.2" class="st0" width="25.5" height="79.8"/>
			<path class="st0" d="M650.7,268.8c7.9,0,13.5-5.6,13.5-13.6c0-7.9-5.6-13.5-13.5-13.5s-13.5,5.6-13.5,13.5
				C637.3,263.2,642.9,268.8,650.7,268.8z"/>
			<path class="st0" d="M760.1,358v-50.4c0-18.7-11.6-30.7-29.2-30.7c-11.9,0.1-21,4.9-26.7,14.2v-13h-25.6V358h25.6v-42.2
				c1-9.5,7-16.1,16.3-16.1c8.6,0,14.1,5.8,14.1,15.1V358H760.1z"/>
			<linearGradient id="SVGID_2_" gradientUnits="userSpaceOnUse" x1="819.7644" y1="358.007" x2="819.7644" y2="254.3121">
				<stop  offset="0" style="stop-color:#FDDA48"/>
				<stop  offset="0.1023" style="stop-color:#F5CF46"/>
				<stop  offset="0.4076" style="stop-color:#E7BA42"/>
				<stop  offset="0.709" style="stop-color:#DFAE3F"/>
				<stop  offset="1" style="stop-color:#DDAA3E"/>
			</linearGradient>
			<path class="st6" d="M833.8,254.3h-27.1L762,358h27.1l7.6-19.1H842l7.4,19.1h28.1L833.8,254.3z M804.4,318.9l15.1-38.4l14.8,38.4
				H804.4z"/>
			<linearGradient id="SVGID_3_" gradientUnits="userSpaceOnUse" x1="907.4602" y1="358.007" x2="907.4602" y2="246.9052">
				<stop  offset="0" style="stop-color:#FDDA48"/>
				<stop  offset="0.1023" style="stop-color:#F5CF46"/>
				<stop  offset="0.4076" style="stop-color:#E7BA42"/>
				<stop  offset="0.709" style="stop-color:#DFAE3F"/>
				<stop  offset="1" style="stop-color:#DDAA3E"/>
			</linearGradient>
			<path class="st7" d="M929.8,281.7h-18.1v-5.8c0-5.9,4-8.9,9.2-8.7c3,0,6.5,1.2,9.3,3.3l9-17.9c-6.1-3.6-14.5-5.6-22.4-5.6
				c-17.2,0-30.5,9.8-30.5,27.4v7.4h-10.8v16.9h10.8V358h25.3v-59.4h18.1V281.7z"/>
			<linearGradient id="SVGID_4_" gradientUnits="userSpaceOnUse" x1="959.3067" y1="358.007" x2="959.3067" y2="276.9767">
				<stop  offset="0" style="stop-color:#FDDA48"/>
				<stop  offset="0.1023" style="stop-color:#F5CF46"/>
				<stop  offset="0.4076" style="stop-color:#E7BA42"/>
				<stop  offset="0.709" style="stop-color:#DFAE3F"/>
				<stop  offset="1" style="stop-color:#DDAA3E"/>
			</linearGradient>
			<path class="st8" d="M985.1,300.1V277c-11.4,0.1-20.4,5.3-25.9,14.7v-13.5h-25.6V358h25.6v-41
				C960.5,305.7,970.3,298.8,985.1,300.1z"/>
			<linearGradient id="SVGID_5_" gradientUnits="userSpaceOnUse" x1="1004.1901" y1="358.007" x2="1004.1901" y2="278.1619">
				<stop  offset="0" style="stop-color:#FDDA48"/>
				<stop  offset="0.1023" style="stop-color:#F5CF46"/>
				<stop  offset="0.4076" style="stop-color:#E7BA42"/>
				<stop  offset="0.709" style="stop-color:#DFAE3F"/>
				<stop  offset="1" style="stop-color:#DDAA3E"/>
			</linearGradient>
			<rect x="991.5" y="278.2" class="st9" width="25.5" height="79.8"/>
			<path class="st10" d="M1004.3,268.8c7.9,0,13.5-5.6,13.5-13.6c0-7.9-5.6-13.5-13.5-13.5s-13.5,5.6-13.5,13.5
				C990.9,263.2,996.5,268.8,1004.3,268.8z"/>
			<linearGradient id="SVGID_6_" gradientUnits="userSpaceOnUse" x1="1069.1466" y1="386.7453" x2="1069.1466" y2="277.1251">
				<stop  offset="0" style="stop-color:#FDDA48"/>
				<stop  offset="0.1023" style="stop-color:#F5CF46"/>
				<stop  offset="0.4076" style="stop-color:#E7BA42"/>
				<stop  offset="0.709" style="stop-color:#DFAE3F"/>
				<stop  offset="1" style="stop-color:#DDAA3E"/>
			</linearGradient>
			<path class="st11" d="M1063,359c10.2,0,18.4-4.1,24-11.6v39.3h25.6V278.2H1087v10.5c-5.6-7.4-14.1-11.6-24.6-11.6
				c-22.1,0-36.7,16.1-36.7,40.6C1025.7,342.5,1040.5,359,1063,359z M1069.2,297.6c10.7,0,17.8,8.4,17.8,20.7
				c0,12.3-7.1,20.9-17.8,20.9c-10.7,0-17.8-8.6-17.9-20.9C1051.4,306,1058.6,297.6,1069.2,297.6z"/>
			<linearGradient id="SVGID_7_" gradientUnits="userSpaceOnUse" x1="1166.175" y1="359.0441" x2="1166.175" y2="278.1619">
				<stop  offset="0" style="stop-color:#FDDA48"/>
				<stop  offset="0.1023" style="stop-color:#F5CF46"/>
				<stop  offset="0.4076" style="stop-color:#E7BA42"/>
				<stop  offset="0.709" style="stop-color:#DFAE3F"/>
				<stop  offset="1" style="stop-color:#DDAA3E"/>
			</linearGradient>
			<path class="st12" d="M1180.6,344.8V358h25.6v-79.8h-25.6v39.4c0,10.8-5.8,18.8-15.6,19c-8.1,0-13.3-5.8-13.3-15.3v-43.1h-25.6
				v50.4c0,18.7,11.3,30.5,28.6,30.5C1166.2,359,1175.1,354.3,1180.6,344.8z"/>
			<linearGradient id="SVGID_8_" gradientUnits="userSpaceOnUse" x1="1255.7252" y1="358.896" x2="1255.7252" y2="277.2732">
				<stop  offset="0" style="stop-color:#FDDA48"/>
				<stop  offset="0.1023" style="stop-color:#F5CF46"/>
				<stop  offset="0.4076" style="stop-color:#E7BA42"/>
				<stop  offset="0.709" style="stop-color:#DFAE3F"/>
				<stop  offset="1" style="stop-color:#DDAA3E"/>
			</linearGradient>
			<path class="st13" d="M1256.3,277.3c-24.7,0-41.6,16.3-41.6,41c0,24.3,16.3,40.6,42.4,40.6c14.7,0,26.7-5.2,34.8-14.1l-13.5-13.2
				c-5.3,5.3-12.1,8.1-19.1,8.1c-9.5,0-16.3-5.3-18.8-14.8h56.1C1298.4,295.8,1284.5,277.3,1256.3,277.3z M1240,311.2
				c1.6-9.6,7.7-16.1,16.6-16.1c9.2,0,15.4,6.4,15.4,16.1H1240z"/>
		</g>
	</g>
</g>
<g id="Logo_x5F_CoinAfrique_x5F_Vertical">
	<g>
		<g id="Picto_1_">
			<path class="st0" d="M2361.4,555.5c-7.9-13.2-14.7-26.9-22-40.4c-66.8,6.5-115.8,27.9-115.8,53.3c0,30.6,71.1,55.4,158.8,55.4
				c87.7,0,158.8-24.8,158.8-55.4c0-25.3-48.7-46.6-115.2-53.2c-11.9,23.6-16,31.4-22.8,41.9
				C2387.2,578.4,2373.4,575.7,2361.4,555.5z"/>
			<linearGradient id="SVGID_9_" gradientUnits="userSpaceOnUse" x1="2363.3899" y1="571.9026" x2="2363.3899" y2="-215.601">
				<stop  offset="0" style="stop-color:#FDDA48"/>
				<stop  offset="0.1023" style="stop-color:#F5CF46"/>
				<stop  offset="0.4076" style="stop-color:#E7BA42"/>
				<stop  offset="0.709" style="stop-color:#DFAE3F"/>
				<stop  offset="1" style="stop-color:#DDAA3E"/>
			</linearGradient>
			<path class="st14" d="M2672.3,13.9c-14.1,5.1-28.6,7.4-43.4,8.6c-19.7,1.5-33.3-8.3-43.3-23.8c-10.8-16.8-17.8-35.5-25.1-53.9
				c-20.2-51.2-53.9-87.5-108.4-102.8c-32.7-9.2-65.8-8-99-8c-24.5,0-42.9-9.9-53.8-32.7c-8.4-17.5-13.3-19.5-31.8-14.5
				c-3.9,1.1-7.8,2.5-11.8,3.4c-52.7,11.5-101.8,31.2-146.3,62.2c-42.2,29.4-74.2,67.3-88.2,116.4c-23.1,80.9,3.2,149.9,59.3,209.7
				c29.3,31.3,65.9,50.6,104.6,67c12.4,5.3,24.3,12.4,30.6,24.2c20.7,39.1,40.7,78.6,60.2,118.3c20.5,42,44.6,82.2,62.6,125.4
				c0.3,0.6,0.6,1.1,0.9,1.7c7.3,13.5,14.1,27.3,22,40.4c12.1,20.2,25.9,22.8,41.8,1.5c6.8-10.5,10.9-18.3,22.8-41.9
				c0.4-0.7,0.7-1.4,1.1-2.1c34.9-67.1,69.8-134.2,104.9-201.2c8.7-16.5,44.4-81.2,60.3-91.1c30-18.7,57.2-40.6,78.3-69.2
				c23.1-31.2,39.4-65.8,42.9-104.6C2716.9,8.7,2703.2,2.8,2672.3,13.9z M2369.5,152.5c-44.2,0-80.1-35.9-80.1-80.1
				c0-44.2,35.9-80.1,80.1-80.1c44.2,0,80.1,35.9,80.1,80.1C2449.6,116.7,2413.7,152.5,2369.5,152.5z"/>
		</g>
		<g>
			<g id="Baseline_1_" class="st2">
				<path class="st3" d="M1909.3,887.5c0,14.2-8.6,22.8-22.9,22.8c-14.4,0-23-8.6-23-22.8v-32.2h6.2v32.2c0,10.6,6.4,16.8,16.8,16.8
					c10.4,0,16.6-6.2,16.6-16.8v-32.2h6.2V887.5z"/>
				<path class="st3" d="M1961.3,884.6V910h-6.1v-23.7c0-7.3-4.4-11.6-11.6-11.6c-8.1,0.1-13.1,5.4-13.8,13.2V910h-6.1v-41.1h6.1
					v9.1c2.9-6.2,8.4-9.2,15.9-9.3C1955.6,868.6,1961.3,874.7,1961.3,884.6z"/>
				<path class="st3" d="M2028.4,874.8l-3.4,4.3c-3.1-3-7.3-4.8-12.3-4.8c-8.5,0-14.6,6.2-14.6,15.1c0,9,6.1,15.2,14.6,15.2
					c5.4,0,9.8-1.9,12.7-5.3l3.5,3.7c-3.7,4.4-9.4,7.1-16.5,7.1c-11.9,0-20.4-8.5-20.4-20.8c0-12.3,8.5-20.8,20.4-20.8
					C2019.2,868.6,2024.6,870.9,2028.4,874.8z"/>
				<path class="st3" d="M2040.5,910v-57.9h6.1V910H2040.5z"/>
				<path class="st3" d="M2068.7,857.1c0,2.4-1.7,4.2-4,4.2c-2.3,0-4-1.8-4-4.2c0-2.4,1.7-4.2,4-4.2
					C2067,852.9,2068.7,854.7,2068.7,857.1z M2061.8,910v-41.1h6V910H2061.8z"/>
				<path class="st3" d="M2114.7,874.8l-3.4,4.3c-3.1-3-7.3-4.8-12.3-4.8c-8.5,0-14.6,6.2-14.6,15.1c0,9,6.1,15.2,14.6,15.2
					c5.4,0,9.8-1.9,12.7-5.3l3.5,3.7c-3.7,4.4-9.4,7.1-16.5,7.1c-11.9,0-20.4-8.5-20.4-20.8c0-12.3,8.5-20.8,20.4-20.8
					C2105.5,868.6,2110.9,870.9,2114.7,874.8z"/>
				<path class="st3" d="M2130.5,906.6c0,1.2-0.5,2.3-1.2,3.4l-3.7,5.6h-3.4l2.6-5.7c-1.2-0.7-1.7-2-1.7-3.4c0-2.3,1.6-3.9,3.7-3.9
					C2128.8,902.6,2130.5,904.1,2130.5,906.6z"/>
				<path class="st3" d="M2198.8,910h-6.1v-9.3c-2.7,6.4-8.2,9.4-15.6,9.5c-9.6,0-15.4-6.1-15.4-16v-25.4h6.1v23.7
					c0,7.3,4.3,11.5,11.4,11.5c8.5-0.2,13.5-6.3,13.5-15.1v-20.2h6.1V910z"/>
				<path class="st3" d="M2251.2,884.6V910h-6.1v-23.7c0-7.3-4.4-11.6-11.6-11.6c-8.1,0.1-13.1,5.4-13.8,13.2V910h-6.1v-41.1h6.1
					v9.1c2.9-6.2,8.4-9.2,15.9-9.3C2245.5,868.6,2251.2,874.7,2251.2,884.6z"/>
				<path class="st3" d="M2300.3,891.8h-33.6c1.1,8,6.9,13.1,14.9,13.1c5.1,0,9.5-1.8,12.7-5.2l3.4,3.6c-3.9,4.4-9.7,6.9-16.5,6.9
					c-12.1,0-20.4-8.5-20.4-20.8c0-12.3,8.4-20.8,20.4-20.8C2294.3,868.6,2300.9,877.8,2300.3,891.8z M2294.8,886.8
					c-0.4-7.9-5.7-12.9-13.7-12.9c-7.8,0-13.4,5.1-14.4,12.9H2294.8z"/>
				<path class="st3" d="M2374.2,889.5c0,12.2-8,20.7-19.6,20.7c-7.3,0-13-3.4-16-9.1v8.8h-6.1v-57.9h6.1v25.7
					c3-5.8,8.7-9.1,15.8-9.1C2366,868.6,2374.2,877.2,2374.2,889.5z M2368,889.4c0-8.8-6.1-15.3-14.7-15.3
					c-8.7,0-14.7,6.4-14.7,15.3c0,9,6.1,15.3,14.7,15.3C2361.9,904.7,2368,898.3,2368,889.4z"/>
				<path class="st3" d="M2422.4,889.4c0,12.3-8.7,20.8-20.8,20.8s-20.8-8.5-20.8-20.8c0-12.3,8.7-20.7,20.8-20.7
					S2422.4,877.1,2422.4,889.4z M2386.8,889.5c0,9.1,6.2,15.3,14.7,15.3s14.7-6.2,14.7-15.3c0-9-6.2-15.2-14.7-15.2
					S2386.8,880.5,2386.8,889.5z"/>
				<path class="st3" d="M2470.7,884.6V910h-6.1v-23.7c0-7.3-4.4-11.6-11.6-11.6c-8.1,0.1-13.1,5.4-13.8,13.2V910h-6.1v-41.1h6.1
					v9.1c2.9-6.2,8.4-9.2,15.9-9.3C2464.9,868.6,2470.7,874.7,2470.7,884.6z"/>
				<path class="st3" d="M2521.9,884.6V910h-6.1v-23.7c0-7.3-4.4-11.6-11.6-11.6c-8.1,0.1-13.1,5.4-13.8,13.2V910h-6.1v-41.1h6.1
					v9.1c2.9-6.2,8.4-9.2,15.9-9.3C2516.1,868.6,2521.9,874.7,2521.9,884.6z"/>
				<path class="st3" d="M2570.9,891.8h-33.6c1.1,8,6.9,13.1,14.9,13.1c5.1,0,9.5-1.8,12.7-5.2l3.4,3.6c-3.9,4.4-9.7,6.9-16.5,6.9
					c-12.1,0-20.4-8.5-20.4-20.8c0-12.3,8.4-20.8,20.4-20.8C2565,868.6,2571.5,877.8,2570.9,891.8z M2565.4,886.8
					c-0.4-7.9-5.7-12.9-13.7-12.9c-7.8,0-13.4,5.1-14.4,12.9H2565.4z"/>
				<path class="st3" d="M2628.3,903.7c-3.3,4.4-8.5,6.6-15.1,6.6c-8.5,0-14-5.5-14-12.6c0-7.2,5.7-11.7,15.4-11.8h13.5v-2.4
					c0-6-3.7-9.6-11-9.6c-4.5,0-8.7,1.7-13,4.7l-2.6-4.4c5.3-3.5,9.8-5.5,16.8-5.5c10.1,0,15.8,5.4,15.8,14.2l0.1,27.2h-5.9V903.7z
					 M2628.2,895.8v-4.9h-12.8c-6.9,0-10.5,2.1-10.5,6.6c0,4.5,3.7,7.5,9.4,7.5C2621.3,905,2626.6,901.5,2628.2,895.8z"/>
				<path class="st3" d="M2655,864.8v5.3h11.8v5H2655V910h-6v-34.9h-5.3v-5h5.3v-4.5c0-9,6.3-13.8,13.2-13.8c3.1,0.1,6.3,1,8.8,2.9
					l-2.5,4.9c-1.9-1.3-4.1-2.1-6.2-2.1C2658.3,857.5,2655,860,2655,864.8z"/>
				<path class="st3" d="M2680.9,864.8v5.3h11.8v5h-11.8V910h-6v-34.9h-5.3v-5h5.3v-4.5c0-9,6.3-13.8,13.2-13.8
					c3.1,0.1,6.3,1,8.8,2.9l-2.5,4.9c-1.9-1.3-4.1-2.1-6.2-2.1C2684.2,857.5,2680.9,860,2680.9,864.8z"/>
				<path class="st3" d="M2721.7,903.7c-3.3,4.4-8.5,6.6-15.1,6.6c-8.5,0-14-5.5-14-12.6c0-7.2,5.7-11.7,15.4-11.8h13.5v-2.4
					c0-6-3.7-9.6-11-9.6c-4.5,0-8.7,1.7-13,4.7l-2.6-4.4c5.3-3.5,9.8-5.5,16.8-5.5c10.1,0,15.8,5.4,15.8,14.2l0.1,27.2h-5.9V903.7z
					 M2721.7,895.8v-4.9h-12.8c-6.9,0-10.5,2.1-10.5,6.6c0,4.5,3.7,7.5,9.4,7.5C2714.8,905,2720.1,901.5,2721.7,895.8z"/>
				<path class="st3" d="M2748.2,857.1c0,2.4-1.7,4.2-4,4.2s-4-1.8-4-4.2c0-2.4,1.7-4.2,4-4.2S2748.2,854.7,2748.2,857.1z
					 M2741.3,910v-41.1h6V910H2741.3z"/>
				<path class="st3" d="M2768.2,878c2.7-6,7.8-9.3,14.7-9.4v6.2c-8.7-0.2-14,5.2-14.7,13.3V910h-6.1v-41.1h6.1V878z"/>
				<path class="st3" d="M2826.6,891.8H2793c1.1,8,6.9,13.1,14.9,13.1c5.1,0,9.5-1.8,12.7-5.2l3.4,3.6c-3.9,4.4-9.7,6.9-16.5,6.9
					c-12.1,0-20.4-8.5-20.4-20.8c0-12.3,8.4-20.8,20.4-20.8C2820.6,868.6,2827.2,877.8,2826.6,891.8z M2821.1,886.8
					c-0.4-7.9-5.7-12.9-13.7-12.9c-7.8,0-13.4,5.1-14.4,12.9H2821.1z"/>
				<path class="st3" d="M2863.4,906.5c0,2.3-1.6,4.1-3.8,4.1c-2.1,0-3.7-1.7-3.7-4.1c0-2.3,1.6-4.1,3.7-4.1
					C2861.8,902.5,2863.4,904.2,2863.4,906.5z M2861.6,893.5h-4.1l-0.9-24v-13.2h5.9v13.2L2861.6,893.5z"/>
			</g>
			<text transform="matrix(1 0 0 1 1863.3904 912.7727)" class="st0 st4" style="font-size:73px;">Achète facile, vends rapide !</text>
			<g id="Name_1_">
				<path class="st0" d="M1977.9,772.9l-18.1-19.2c-8.5,8.7-20.4,14.3-30.7,14.3c-19.3,0-34-15.5-34-35.9c0-20,14.6-35.4,34-35.4
					c10.8,0,22.7,6.1,30.7,15.9l18-21.3c-12.2-12.5-31-20.6-49.1-20.6c-37.1,0-65.2,26.5-65.2,61.7c0,35.7,27.4,62.7,64.1,62.7
					C1945.5,795.2,1964.8,786.3,1977.9,772.9z"/>
				<path class="st0" d="M2078.3,746.8c0-28.9-20.6-47.9-51.2-47.9c-30.8,0-51.4,19-51.4,47.9c0,28.9,20.6,48.1,51.4,48.1
					C2057.7,794.9,2078.3,775.7,2078.3,746.8z M2027,771.5c-12.5,0-21.1-9.8-21.1-24.4c0-14.5,8.5-24.4,21.1-24.4
					c12.4,0,20.9,9.9,20.9,24.4C2047.9,761.7,2039.4,771.5,2027,771.5z"/>
				<rect x="2088.2" y="699.9" class="st0" width="30" height="93.9"/>
				<path class="st0" d="M2103.4,688.9c9.2,0,15.9-6.6,15.9-16c0-9.2-6.6-15.9-15.9-15.9s-15.9,6.6-15.9,15.9
					C2087.5,682.3,2094.1,688.9,2103.4,688.9z"/>
				<path class="st0" d="M2232,793.8v-59.3c0-22-13.6-36.1-34.3-36.1c-13.9,0.2-24.7,5.8-31.4,16.7v-15.3h-30.1v93.9h30.1v-49.7
					c1.2-11.2,8.2-19,19.2-19c10.1,0,16.6,6.8,16.6,17.8v50.9H2232z"/>
				<linearGradient id="SVGID_10_" gradientUnits="userSpaceOnUse" x1="2302.2185" y1="793.8098" x2="2302.2185" y2="671.8157">
					<stop  offset="0" style="stop-color:#FDDA48"/>
					<stop  offset="0.1023" style="stop-color:#F5CF46"/>
					<stop  offset="0.4076" style="stop-color:#E7BA42"/>
					<stop  offset="0.709" style="stop-color:#DFAE3F"/>
					<stop  offset="1" style="stop-color:#DDAA3E"/>
				</linearGradient>
				<path class="st15" d="M2318.8,671.8h-31.9l-52.6,122h31.9l8.9-22.5h53.3l8.7,22.5h33.1L2318.8,671.8z M2284.1,747.8l17.8-45.1
					l17.4,45.1H2284.1z"/>
				<linearGradient id="SVGID_11_" gradientUnits="userSpaceOnUse" x1="2405.3899" y1="793.8098" x2="2405.3899" y2="663.1018">
					<stop  offset="0" style="stop-color:#FDDA48"/>
					<stop  offset="0.1023" style="stop-color:#F5CF46"/>
					<stop  offset="0.4076" style="stop-color:#E7BA42"/>
					<stop  offset="0.709" style="stop-color:#DFAE3F"/>
					<stop  offset="1" style="stop-color:#DDAA3E"/>
				</linearGradient>
				<path class="st16" d="M2431.7,704.1h-21.3v-6.8c0-7,4.7-10.5,10.8-10.3c3.5,0,7.7,1.4,11,3.8l10.6-21.1
					c-7.1-4.2-17.1-6.6-26.3-6.6c-20.2,0-35.9,11.5-35.9,32.2v8.7h-12.7v19.9h12.7v69.9h29.8v-69.9h21.3V704.1z"/>
				<linearGradient id="SVGID_12_" gradientUnits="userSpaceOnUse" x1="2466.3857" y1="793.8098" x2="2466.3857" y2="698.48">
					<stop  offset="0" style="stop-color:#FDDA48"/>
					<stop  offset="0.1023" style="stop-color:#F5CF46"/>
					<stop  offset="0.4076" style="stop-color:#E7BA42"/>
					<stop  offset="0.709" style="stop-color:#DFAE3F"/>
					<stop  offset="1" style="stop-color:#DDAA3E"/>
				</linearGradient>
				<path class="st17" d="M2496.7,725.7v-27.2c-13.4,0.2-24.1,6.3-30.5,17.3v-15.9h-30.1v93.9h30.1v-48.3
					C2467.8,732.3,2479.3,724.1,2496.7,725.7z"/>
				<linearGradient id="SVGID_13_" gradientUnits="userSpaceOnUse" x1="2519.1897" y1="793.8098" x2="2519.1897" y2="699.8744">
					<stop  offset="0" style="stop-color:#FDDA48"/>
					<stop  offset="0.1023" style="stop-color:#F5CF46"/>
					<stop  offset="0.4076" style="stop-color:#E7BA42"/>
					<stop  offset="0.709" style="stop-color:#DFAE3F"/>
					<stop  offset="1" style="stop-color:#DDAA3E"/>
				</linearGradient>
				<rect x="2504.2" y="699.9" class="st18" width="30" height="93.9"/>
				<path class="st10" d="M2519.4,688.9c9.2,0,15.9-6.6,15.9-16c0-9.2-6.6-15.9-15.9-15.9s-15.9,6.6-15.9,15.9
					C2503.5,682.3,2510.1,688.9,2519.4,688.9z"/>
				<linearGradient id="SVGID_14_" gradientUnits="userSpaceOnUse" x1="2595.6091" y1="827.6195" x2="2595.6091" y2="698.6546">
					<stop  offset="0" style="stop-color:#FDDA48"/>
					<stop  offset="0.1023" style="stop-color:#F5CF46"/>
					<stop  offset="0.4076" style="stop-color:#E7BA42"/>
					<stop  offset="0.709" style="stop-color:#DFAE3F"/>
					<stop  offset="1" style="stop-color:#DDAA3E"/>
				</linearGradient>
				<path class="st19" d="M2588.4,795c12,0,21.6-4.9,28.2-13.6v46.2h30.2V699.9h-30.2v12.4c-6.6-8.7-16.6-13.6-28.9-13.6
					c-26,0-43.2,19-43.2,47.8C2544.5,775.5,2561.9,795,2588.4,795z M2595.7,722.7c12.5,0,20.9,9.9,20.9,24.4
					c0,14.5-8.4,24.6-20.9,24.6s-20.9-10.1-21.1-24.6C2574.8,732.6,2583.1,722.7,2595.7,722.7z"/>
				<linearGradient id="SVGID_15_" gradientUnits="userSpaceOnUse" x1="2709.7605" y1="795.0299" x2="2709.7605" y2="699.8744">
					<stop  offset="0" style="stop-color:#FDDA48"/>
					<stop  offset="0.1023" style="stop-color:#F5CF46"/>
					<stop  offset="0.4076" style="stop-color:#E7BA42"/>
					<stop  offset="0.709" style="stop-color:#DFAE3F"/>
					<stop  offset="1" style="stop-color:#DDAA3E"/>
				</linearGradient>
				<path class="st20" d="M2726.8,778.3v15.5h30.2v-93.9h-30.2v46.4c0,12.7-6.8,22.1-18.3,22.3c-9.6,0-15.7-6.8-15.7-18v-50.7h-30.2
					v59.3c0,22,13.2,35.9,33.6,35.9C2709.8,795,2720.3,789.5,2726.8,778.3z"/>
				<linearGradient id="SVGID_16_" gradientUnits="userSpaceOnUse" x1="2815.1135" y1="794.8557" x2="2815.1135" y2="698.8288">
					<stop  offset="0" style="stop-color:#FDDA48"/>
					<stop  offset="0.1023" style="stop-color:#F5CF46"/>
					<stop  offset="0.4076" style="stop-color:#E7BA42"/>
					<stop  offset="0.709" style="stop-color:#DFAE3F"/>
					<stop  offset="1" style="stop-color:#DDAA3E"/>
				</linearGradient>
				<path class="st21" d="M2815.8,698.8c-29.1,0-49,19.2-49,48.3c0,28.6,19.2,47.8,49.8,47.8c17.3,0,31.4-6.1,41-16.6l-15.9-15.5
					c-6.3,6.3-14.3,9.6-22.5,9.6c-11.2,0-19.2-6.3-22.1-17.4h66.1C2865.3,720.6,2848.9,698.8,2815.8,698.8z M2796.6,738.7
					c1.9-11.3,9.1-19,19.5-19c10.8,0,18.1,7.5,18.1,19H2796.6z"/>
			</g>
		</g>
	</g>
</g>
</svg>
